PathFileType	4	(X/Y/Z)	AB10\squats_1.trc
DataRate	CameraRate	NumFrames	NumMarkers	Units	OrigDataRate	OrigDataStartFrame	OrigNumFrames
200.000000	200.000000	4	35	mm	200.000000	0	343
Frame#	Time	C7			LSHO			STRN			LASI			RASI			LPSI			RPSI			LGTR			RGTR			LTHL			LTHR			LKNE			LMKNE			LSHC			LSHL			LSHR			LANK			LMANK			LMT1			LMT5			LCAL			RTHC			RTHL			RTHR			RKNE			RMKNE			RSHC			RSHL			RSHR			RANK			RMANK			RMT1			RMT5			RCAL			LTHC			
		X1	Y1	Z1	X2	Y2	Z2	X3	Y3	Z3	X4	Y4	Z4	X5	Y5	Z5	X6	Y6	Z6	X7	Y7	Z7	X8	Y8	Z8	X9	Y9	Z9	X10	Y10	Z10	X11	Y11	Z11	X12	Y12	Z12	X13	Y13	Z13	X14	Y14	Z14	X15	Y15	Z15	X16	Y16	Z16	X17	Y17	Z17	X18	Y18	Z18	X19	Y19	Z19	X20	Y20	Z20	X21	Y21	Z21	X22	Y22	Z22	X23	Y23	Z23	X24	Y24	Z24	X25	Y25	Z25	X26	Y26	Z26	X27	Y27	Z27	X28	Y28	Z28	X29	Y29	Z29	X30	Y30	Z30	X31	Y31	Z31	X32	Y32	Z32	X33	Y33	Z33	X34	Y34	Z34	X35	Y35	Z35	

1	24.625	-3476.417072054111	1528.013764622416	2507.459399133418	-3508.719992083672	1477.429699012388	2661.53466276607	-3561.479109496036	1379.933910285157	2505.435319174964	-3482.425198336423	1017.161127577639	2630.659079441479	-3480.329832921599	1013.561714306348	2356.626942858216	-3290.347407241683	1064.72024765986	2553.262665576558	-3296.165543694467	1071.027890006416	2459.657292000848	-3431.006194910074	965.4838014149799	2702.000886218285	-3395.1672270864	956.8627164972864	2302.857140513485	-3551.437639805734	713.3842930979835	2649.418286649968	-3375.676756174343	675.8342454633504	2659.24388772881	-3467.400211734901	530.7280877489371	2698.014943504543	-3476.350051749968	505.0304296555423	2566.324753124853	-3422.633123215885	317.7783374246695	2715.521151742994	-3485.587223760972	213.1755718601925	2673.887638489968	-3385.561490018735	212.5969615901293	2651.317930881471	-3419.428406938852	98.34268057229012	2706.666615925132	-3449.124208031793	94.18239669257382	2623.175082686793	-3571.31276183362	61.90268304476545	2676.044609186773	-3516.892357268629	50.19497004966918	2763.866984019884	-3355.601192350035	73.80235934590981	2651.620512059946	-3383.172696478609	634.2500386266699	2384.623143470681	-3439.094913012097	781.4054458997221	2286.041414166713	-3554.566731823897	710.470307586656	2366.482847017256	-3482.526873777717	507.2439192549461	2299.092276268016	-3496.463824587931	477.5428700116002	2419.293913400021	-3489.352491193618	223.5342054334772	2323.746511089618	-3384.91445989344	256.4702683297101	2315.949942999387	-3435.78198414299	329.1791445589379	2270.344875946933	-3409.024504395114	109.4939579582151	2268.367596458907	-3439.719467494254	105.7176666239292	2350.142082647961	-3567.151793566135	61.3072999736802	2291.713578362232	-3516.696250304199	51.52160094873599	2208.984614871246	-3349.032945360075	76.98114749748223	2318.144382248318	-3462.268381696332	796.1399785650118	2719.771790816713	
2	24.63	-3477.548848600843	1526.631709874441	2507.132064005239	-3509.58581950288	1476.002839721892	2661.204052430359	-3562.013098753565	1378.270508783371	2505.234777831025	-3480.892222202689	1016.04668085053	2630.591669702046	-3479.407809607158	1012.150511716176	2356.690317988468	-3289.279293665423	1064.359305385665	2552.806269584773	-3295.324708681809	1070.471621922538	2459.240215688229	-3429.233434379155	964.7270101280747	2701.977396272333	-3394.313648987709	955.8600680256909	2302.646118428997	-3551.700767798984	713.6409264860316	2649.282073649699	-3376.405538645776	674.5226626213838	2659.398294146575	-3469.50705063647	530.3254500995725	2697.995160475712	-3478.311148983506	504.8068350193658	2566.386948156474	-3424.028419577984	317.8139651045727	2715.562518151583	-3486.346425751397	212.9152307023638	2673.84445165341	-3386.320134685231	212.762508284795	2651.375502838302	-3419.448969528636	98.33181730464887	2706.668284487806	-3449.112883461577	94.20519003036119	2623.162290876606	-3571.330103002123	61.91881745930752	2676.001028007765	-3516.89578639741	50.21216291784064	2763.826375400723	-3355.607168682427	73.81141018234266	2651.626347037284	-3384.099243781115	632.9625892744268	2384.269655989533	-3439.046948938024	780.4402997607828	2285.996526765829	-3554.967339014683	710.399307921805	2366.570690461087	-3484.598356184358	506.8104141747706	2298.858743901775	-3498.324009707607	477.1720817533713	2419.075039646743	-3490.130095049731	223.1684625041505	2323.773231034366	-3385.864698617931	256.5558842921737	2315.838879383737	-3437.18858828403	328.9807210433898	2270.21545951088	-3409.142697271333	109.5407205278888	2268.361417232078	-3439.786559660802	105.6774605177841	2350.193219089152	-3567.152306263767	61.30665949827257	2291.726916185672	-3516.701286325347	51.53495715973092	2208.997920663593	-3349.062380720555	76.95593389401805	2318.14046820581	-3461.683111336965	795.5406708398975	2719.84519542865	
3	24.635	-3478.682580937206	1525.242890793004	2506.804858346862	-3510.454516798435	1474.567139208429	2660.873375433474	-3562.547368870562	1376.598366796443	2505.034497699369	-3479.35502304705	1014.927961999773	2630.528073402166	-3478.483668729708	1010.736104855082	2356.756696360078	-3288.206375293167	1063.990228998797	2552.346707686082	-3294.480954510057	1069.909988543854	2458.821018773795	-3427.4551885289	963.9664280571601	2701.952591380805	-3393.45860915052	954.8556573982606	2302.432287108129	-3551.966986467182	713.8975478012335	2649.148115565079	-3377.138449199414	673.2037820340022	2659.55543316877	-3471.620828161694	529.9218789224603	2697.977706648984	-3480.279074481921	504.5819473287544	2566.451144223762	-3425.429012783637	317.8475351153301	2715.605077480142	-3487.108178136515	212.654944862214	2673.801031609476	-3387.080760932997	212.9315515156846	2651.434985078961	-3419.469715258179	98.32090969916591	2706.671009250743	-3449.10204832261	94.22999383048987	2623.150643986526	-3571.347539107908	61.93545571973753	2675.957331757072	-3516.899323057302	50.22918489200782	2763.78513668254	-3355.613127347608	73.82025555659811	2651.632849968622	-3385.026668370318	631.6703146357054	2383.911881875375	-3439.000476894632	779.4717654369771	2285.947563688721	-3555.369796245856	710.3273861838048	2366.656657335051	-3486.675604152299	506.3759701709697	2298.624319619528	-3500.187818497551	476.8004571839216	2418.8551939334	-3490.90913950483	222.8008041566387	2323.799797264106	-3386.818414185633	256.6422199197863	2315.725045628154	-3438.599937785274	328.7818432641341	2270.083793766215	-3409.26065881101	109.5873603544247	2268.354505361987	-3439.852990659685	105.6366746622345	2350.244091689631	-3567.153018743043	61.30627428027132	2291.740068009051	-3516.706233801547	51.5482799148833	2209.011231870596	-3349.090985493243	76.93282894181962	2318.136277038047	-3461.097802283559	794.9364755291891	2719.917718575678	
4	24.64	-3479.814951852189	1523.844217054343	2506.479213579514	-3511.323845124807	1473.119569798773	2660.544059536342	-3563.079968629492	1374.914269588756	2504.83548168607	-3477.817037277147	1013.802412696644	2630.469939945718	-3477.558677802065	1009.317445440782	2356.826745860432	-3287.13020519367	1063.605822271655	2551.88529117481	-3293.635283643184	1069.337806347026	2458.400802700652	-3425.67599027048	963.198538757542	2701.926062913468	-3392.603498211597	953.8479141853113	2302.215165085964	-3552.236595570028	714.1509760435077	2649.0194397097	-3377.875476532859	671.8775467765603	2659.715276816685	-3473.736847478212	529.5168644869841	2697.964465739163	-3482.251089576198	504.3545374722943	2566.518913873174	-3426.83234423795	317.8765718412707	2715.650177634744	-3487.871114313428	212.3936365791586	2673.757100519883	-3387.841570766261	213.1037411078508	2651.497494920885	-3419.491272933281	98.31047521748316	2706.674905462691	-3449.092312001931	94.2562661992568	2623.139731226774	-3571.364971631544	61.95262862387396	2675.913667541647	-3516.90299626695	50.24600864505231	2763.743525300257	-3355.619014221751	73.82871327674889	2651.639930012447	-3385.954158415119	630.3731516648189	2383.548502874889	-3438.956100875575	778.4989614441553	2285.892637204359	-3555.773635166484	710.2522538919425	2366.738705456022	-3488.755008018762	505.9389394607295	2298.388175774519	-3502.052547439425	476.4276320820791	2418.633650372055	-3491.688164741127	222.4307801739119	2323.825128662851	-3387.774318966824	256.7289789816792	2315.607159404272	-3440.013970385382	328.5817896035258	2269.94835658369	-3409.378101261283	109.6333874132999	2268.346458139352	-3439.918363054505	105.5954721080753	2350.294069349024	-3567.153900706844	61.30613767159901	2291.753139236106	-3516.711031229089	51.56144335928742	2209.024522759456	-3349.118296998391	76.91194291969137	2318.131884076361	-3460.51448724765	794.3246982018541	2719.989656678149	
